<?xml version="1.0" standalone="no"?>
<!DOCTYPE svg PUBLIC "-//W3C//DTD SVG 20010904//EN"
 "http://www.w3.org/TR/2001/REC-SVG-20010904/DTD/svg10.dtd">
<svg version="1.0" xmlns="http://www.w3.org/2000/svg"
 width="759.000000pt" height="759.000000pt" viewBox="0 0 759.000000 759.000000"
 preserveAspectRatio="xMidYMid meet">
<metadata>
Created by potrace 1.14, written by Peter Selinger 2001-2017
</metadata>
<g transform="translate(0.000000,759.000000) scale(0.100000,-0.100000)"
fill="#000000" stroke="none">
<path d="M4058 7575 c-2 -1 -59 -6 -128 -10 -69 -3 -138 -8 -155 -10 -16 -2
-57 -6 -90 -9 -57 -6 -182 -22 -235 -30 -211 -35 -241 -40 -290 -51 -14 -3
-36 -7 -50 -10 -164 -31 -458 -108 -655 -172 -566 -184 -1044 -432 -1430 -741
-124 -99 -341 -309 -410 -397 -22 -27 -42 -52 -46 -55 -3 -3 -32 -43 -66 -90
-183 -256 -302 -529 -358 -827 -21 -115 -27 -197 -27 -398 -1 -195 5 -285 27
-455 3 -19 7 -55 10 -80 35 -261 156 -697 290 -1040 92 -236 256 -589 365
-785 152 -275 356 -604 474 -765 14 -19 34 -46 43 -60 33 -46 222 -295 245
-322 13 -15 37 -44 53 -65 17 -21 86 -101 155 -178 168 -189 311 -332 501
-500 55 -49 209 -168 279 -216 36 -24 67 -46 70 -49 30 -30 222 -118 345 -159
149 -49 231 -66 410 -89 118 -14 453 -7 595 13 86 12 226 37 286 51 38 9 76
17 84 19 213 45 569 166 811 277 394 180 736 395 1062 666 167 139 431 414
554 577 192 253 310 456 422 721 66 158 110 301 147 479 22 109 52 272 61 330
2 17 8 53 13 80 5 28 12 73 15 100 3 28 8 61 10 75 3 23 11 93 20 185 2 22 7
69 11 105 13 120 5 623 -10 708 -2 9 -7 47 -10 84 -4 37 -9 77 -11 90 -2 13
-9 57 -14 98 -12 82 -16 109 -32 186 -5 28 -12 64 -15 80 -16 91 -90 365 -138
506 -133 399 -305 732 -537 1043 -116 156 -162 209 -294 339 -377 375 -867
626 -1375 706 -111 17 -118 18 -200 26 -41 3 -93 8 -115 10 -51 5 -662 13
-667 9z m402 -299 c88 -11 126 -17 195 -31 234 -48 613 -194 900 -348 100 -54
311 -183 360 -221 227 -174 313 -250 460 -407 185 -197 377 -494 488 -754 124
-291 210 -667 228 -990 9 -170 0 -517 -16 -617 -2 -13 -6 -48 -10 -79 -3 -31
-8 -67 -10 -80 -3 -13 -7 -41 -10 -64 -8 -53 -42 -223 -61 -304 -9 -36 -17
-72 -19 -81 -10 -53 -102 -349 -145 -465 -225 -614 -535 -1136 -920 -1549
-526 -563 -1106 -913 -1680 -1011 -243 -41 -457 -35 -673 19 -267 67 -527 196
-752 371 -402 314 -905 793 -1210 1150 -33 39 -62 72 -65 75 -3 3 -24 28 -45
55 -22 28 -43 52 -46 55 -18 14 -236 311 -306 415 -338 506 -560 1030 -629
1485 -3 25 -8 53 -10 64 -3 18 -8 59 -20 181 -6 66 -6 306 0 371 13 128 17
172 21 194 3 14 7 41 10 60 12 74 77 324 106 408 136 387 362 731 653 991 121
108 129 115 206 172 164 122 336 227 535 327 320 161 463 215 1120 422 189 60
476 130 595 145 19 3 44 7 56 10 12 2 39 7 60 10 21 3 48 8 59 10 11 2 61 7
110 11 50 3 91 8 93 9 6 5 323 -3 372 -9z"/>
<path d="M3429 6816 c-2 -2 -41 -6 -85 -10 -68 -5 -141 -18 -296 -51 -106 -23
-340 -125 -466 -203 -247 -154 -591 -478 -797 -752 -27 -36 -52 -67 -56 -70
-11 -8 -213 -320 -249 -385 -197 -355 -329 -698 -406 -1059 -14 -67 -27 -137
-29 -156 -3 -19 -7 -48 -9 -65 -3 -16 -8 -51 -11 -77 -3 -27 -7 -69 -10 -94
-3 -25 -6 -159 -6 -298 -1 -228 3 -314 16 -386 3 -14 7 -41 10 -60 4 -19 11
-55 16 -80 6 -25 12 -53 14 -62 8 -39 70 -207 98 -267 89 -189 179 -315 336
-472 397 -396 986 -711 1720 -918 80 -23 154 -43 165 -45 12 -2 48 -11 81 -19
52 -14 198 -44 370 -77 28 -5 75 -12 105 -15 30 -3 71 -8 90 -10 128 -15 224
-19 445 -20 218 0 428 9 445 20 3 2 24 6 45 8 331 40 637 233 920 579 42 51
79 98 83 103 4 6 19 26 33 45 53 73 177 279 231 385 286 559 420 1179 383
1764 -3 63 -9 123 -11 135 -2 12 -7 41 -10 66 -6 49 -7 58 -24 140 -6 30 -14
66 -16 80 -23 116 -104 341 -170 474 -89 177 -246 417 -371 566 -148 178 -298
331 -459 469 -489 423 -1065 703 -1609 782 -38 5 -88 12 -110 15 -22 3 -56 7
-75 10 -40 6 -326 14 -331 10z m505 -310 c38 -4 71 -8 75 -10 3 -2 29 -7 56
-11 76 -10 240 -51 337 -84 539 -184 1033 -587 1381 -1128 239 -371 419 -819
481 -1198 29 -177 34 -215 43 -320 14 -167 8 -572 -11 -670 -2 -11 -7 -42 -10
-70 -28 -215 -114 -499 -208 -688 -242 -486 -623 -751 -1133 -792 -44 -3 -100
-8 -125 -10 -47 -5 -200 -14 -330 -20 -105 -6 -432 -5 -510 0 -36 3 -114 7
-175 10 -60 2 -132 7 -160 10 -131 14 -153 17 -190 21 -34 4 -207 33 -300 49
-16 3 -90 21 -163 40 -599 157 -1045 464 -1307 899 -107 178 -164 349 -190
562 -4 33 -9 67 -11 77 -22 121 -22 533 1 752 1 17 6 60 9 97 4 37 9 75 11 86
2 10 6 43 10 72 4 29 9 62 11 74 2 12 9 48 14 81 79 475 251 987 450 1335 107
186 283 388 410 470 172 111 486 242 720 299 129 31 151 36 229 47 25 4 55 8
66 10 11 2 63 7 115 10 52 3 96 7 98 9 4 4 233 -3 306 -9z"/>
<path d="M3677 5974 c-1 -1 -38 -4 -83 -8 -108 -8 -238 -31 -346 -61 -91 -26
-110 -33 -196 -71 -29 -13 -54 -24 -56 -24 -14 0 -166 -95 -241 -151 -108 -79
-157 -127 -240 -234 -242 -310 -420 -721 -541 -1250 -22 -97 -62 -359 -69
-463 -4 -42 -8 -90 -11 -107 -5 -37 -5 -378 1 -420 2 -16 6 -63 10 -104 15
-174 77 -403 142 -521 185 -338 685 -627 1268 -735 185 -34 260 -40 505 -40
192 0 237 4 366 29 198 39 461 145 643 259 469 293 871 819 1062 1388 36 107
32 94 64 229 13 58 30 148 38 200 16 108 20 397 6 480 -5 30 -11 71 -14 90
-12 77 -16 93 -49 193 -45 136 -93 237 -169 350 -60 89 -202 243 -280 303
-468 356 -968 579 -1461 649 -65 9 -342 24 -349 19z m623 -369 c164 -14 424
-69 579 -122 162 -55 328 -145 420 -228 106 -95 214 -250 311 -450 177 -363
224 -706 149 -1087 -97 -488 -446 -982 -914 -1292 -87 -57 -310 -188 -390
-228 -169 -86 -495 -180 -700 -204 -85 -9 -338 -10 -415 -1 -345 41 -628 185
-810 412 -67 84 -108 157 -173 307 -15 33 -99 360 -111 428 -2 14 -9 52 -15
85 -15 85 -19 113 -26 170 -3 27 -7 57 -9 65 -19 66 -27 499 -13 640 18 178
64 381 119 525 17 44 34 85 38 90 4 6 11 21 15 34 12 41 114 211 174 291 68
92 232 258 292 296 149 94 371 174 594 213 33 6 69 13 80 15 91 17 222 34 330
42 44 3 82 8 84 10 6 5 297 -3 391 -11z"/>
<path d="M4197 5134 c-1 -1 -40 -5 -87 -8 -70 -6 -168 -24 -333 -61 -316 -71
-698 -213 -903 -335 -266 -158 -415 -318 -469 -504 -27 -91 -22 -282 11 -426
39 -174 157 -463 252 -620 12 -19 25 -42 29 -50 19 -41 148 -237 211 -320 163
-215 368 -408 511 -484 136 -71 296 -78 559 -25 312 63 641 242 855 464 83 86
167 206 217 310 43 89 98 260 114 355 3 19 8 46 11 60 25 122 24 419 -1 577
-8 56 -14 88 -20 113 -3 14 -7 35 -9 46 -13 62 -60 207 -91 283 -137 332 -361
553 -622 612 -40 9 -227 20 -235 13z m38 -149 c457 -151 743 -467 811 -895 13
-83 12 -330 -1 -410 -62 -374 -212 -681 -465 -953 -45 -49 -178 -163 -235
-203 -97 -67 -250 -133 -351 -151 -68 -12 -240 -6 -337 12 -126 24 -272 129
-512 370 -349 351 -528 657 -590 1010 -7 41 -7 201 0 250 39 271 140 447 327
571 96 64 384 197 455 210 29 5 166 56 224 82 147 68 288 114 409 135 63 10
188 -3 265 -28z"/>
<path d="M3577 4774 c-1 -1 -27 -4 -58 -7 -130 -14 -242 -77 -331 -187 -92
-114 -171 -316 -193 -490 -3 -25 -8 -65 -12 -90 -20 -144 -1 -421 35 -517 38
-99 141 -236 265 -353 130 -121 370 -260 489 -284 13 -2 53 -11 90 -19 36 -8
90 -12 120 -10 81 6 197 41 259 79 175 105 337 344 413 606 32 112 40 177 40
323 -1 221 -52 346 -203 495 -53 52 -107 104 -121 115 -234 187 -480 310 -664
331 -60 6 -126 11 -129 8z m78 -148 c393 -82 650 -190 787 -330 116 -117 186
-437 144 -654 -41 -216 -172 -409 -347 -513 -88 -53 -248 -108 -323 -113 -169
-10 -420 87 -564 218 -132 121 -182 224 -197 406 -3 47 -8 92 -10 100 -2 8 -7
39 -10 69 -4 30 -8 62 -10 71 -16 82 -32 286 -28 355 11 201 107 340 268 391
40 13 228 12 290 0z"/>
</g>
</svg>
